<svg xmlns="http://www.w3.org/2000/svg" width="720" height="170" viewBox="0 0 720 170" role="img">
  <rect width="720" height="170" rx="14" fill="#11151c"/>
  <rect x=".5" y=".5" width="719" height="169" rx="14" fill="none" stroke="#1c212d"/>
  
  <text x="28" y="26" fill="#484f58" font-family="'JetBrains Mono','SF Mono',Consolas,ui-monospace,monospace" font-size="10" letter-spacing="2">ARCHITECTURE — VELOCITY</text>
  <text x="692" y="26" fill="#484f58" font-family="'JetBrains Mono','SF Mono',Consolas,ui-monospace,monospace" font-size="9" text-anchor="end">ES6 · 22 modules · 52 files</text>
  <g>
    <path id="arch-path" d="M 146,111 L 306,111 M 306,111 L 306,191 M 306,191 L 146,191 M 146,191 L 146,111" fill="none"/>
        <line x1="146" y1="111" x2="306" y2="111" stroke="#1c212d" stroke-width="1.2"/>
    <line x1="306" y1="111" x2="306" y2="191" stroke="#1c212d" stroke-width="1.2"/>
    <line x1="306" y1="191" x2="146" y2="191" stroke="#1c212d" stroke-width="1.2"/>
    <line x1="146" y1="191" x2="146" y2="111" stroke="#1c212d" stroke-width="1.2"/>
    <rect x="100" y="96" width="92" height="30" rx="8" fill="#0b0d11" stroke="#1c212d" stroke-width="1"/>
    <text x="146" y="115" text-anchor="middle" fill="#8b949e" font-family="'JetBrains Mono','SF Mono',Consolas,ui-monospace,monospace" font-size="10.5">CORE</text>
    <rect x="260" y="96" width="92" height="30" rx="8" fill="#0b0d11" stroke="#1c212d" stroke-width="1"/>
    <text x="306" y="115" text-anchor="middle" fill="#8b949e" font-family="'JetBrains Mono','SF Mono',Consolas,ui-monospace,monospace" font-size="10.5">RENDER</text>
    <rect x="100" y="176" width="92" height="30" rx="8" fill="#0b0d11" stroke="#1c212d" stroke-width="1"/>
    <text x="146" y="195" text-anchor="middle" fill="#8b949e" font-family="'JetBrains Mono','SF Mono',Consolas,ui-monospace,monospace" font-size="10.5">NETWORK</text>
    <rect x="260" y="176" width="92" height="30" rx="8" fill="#0b0d11" stroke="#1c212d" stroke-width="1"/>
    <text x="306" y="195" text-anchor="middle" fill="#8b949e" font-family="'JetBrains Mono','SF Mono',Consolas,ui-monospace,monospace" font-size="10.5">SIM</text>

    <!-- two data packets orbit the loop, offset by 1.1s -->
    <circle r="2.5" fill="#ff3340">
      <animateMotion dur="4.4s" repeatCount="indefinite" rotate="auto">
        <mpath href="#arch-path"/>
      </animateMotion>
    </circle>
    <circle r="2.5" fill="#ff3340" opacity="0.7">
      <animateMotion dur="4.4s" repeatCount="indefinite" rotate="auto" begin="1.1s">
        <mpath href="#arch-path"/>
      </animateMotion>
    </circle>
  </g>
      <text x="420" y="104" fill="#6e7681" font-family="'JetBrains Mono','SF Mono',Consolas,ui-monospace,monospace" font-size="10.5">Canvas · 60 fps</text>
    <text x="420" y="126" fill="#6e7681" font-family="'JetBrains Mono','SF Mono',Consolas,ui-monospace,monospace" font-size="10.5">Physics · 120 Hz</text>
    <text x="420" y="148" fill="#6e7681" font-family="'JetBrains Mono','SF Mono',Consolas,ui-monospace,monospace" font-size="10.5">WebRTC · P2P</text>
    <text x="420" y="170" fill="#6e7681" font-family="'JetBrains Mono','SF Mono',Consolas,ui-monospace,monospace" font-size="10.5">Memory · &lt; 45MB</text>

  <text x="692" y="164" fill="#484f58" font-family="'JetBrains Mono','SF Mono',Consolas,ui-monospace,monospace" font-size="8" text-anchor="end">data flow — live system map</text>
</svg>