<svg xmlns="http://www.w3.org/2000/svg" width="720" height="140" viewBox="0 0 720 140" role="img" aria-label="Commit telemetry – 12 weeks">
  <rect width="720" height="140" rx="14" fill="#11151c"/>
  <rect x="0.5" y="0.5" width="719" height="139" rx="14" fill="none" stroke="#232837"/>
  <text x="28" y="28" fill="#7a808c" font-family="'JetBrains Mono','SF Mono',Consolas,ui-monospace,monospace" font-size="10.5" letter-spacing="1.2">COMMIT TELEMETRY</text>
  <text x="692" y="28" fill="#5b616e" font-family="'JetBrains Mono','SF Mono',Consolas,ui-monospace,monospace" font-size="10" text-anchor="end">sample</text>
  <line x1="52" y1="34.0" x2="692" y2="34.0" stroke="#1e232e" stroke-width="1"/><line x1="52" y1="73.0" x2="692" y2="73.0" stroke="#1e232e" stroke-width="1"/><line x1="52" y1="112.0" x2="692" y2="112.0" stroke="#1e232e" stroke-width="1"/>
  <polygon points="52.0,80.8 110.2,112.0 168.4,96.4 226.5,65.2 284.7,112.0 342.9,112.0 401.1,49.6 459.3,96.4 517.5,80.8 575.6,34.0 633.8,96.4 692.0,65.2 692.0,112.0 52.0,112.0" fill="#ff3340" opacity="0.08"/>
  <polyline points="52.0,80.8 110.2,112.0 168.4,96.4 226.5,65.2 284.7,112.0 342.9,112.0 401.1,49.6 459.3,96.4 517.5,80.8 575.6,34.0 633.8,96.4 692.0,65.2" fill="none" stroke="#ff3340" stroke-width="1.9" stroke-linejoin="round" stroke-linecap="round"/>
  <!-- y labels -->
  <text x="24" y="38.0" fill="#4b505c" font-family="'JetBrains Mono','SF Mono',Consolas,ui-monospace,monospace" font-size="9" text-anchor="end">5</text>
  <text x="24" y="115.0" fill="#4b505c" font-family="'JetBrains Mono','SF Mono',Consolas,ui-monospace,monospace" font-size="9" text-anchor="end">0</text>
  <!-- x labels -->
  <text x="52" y="128" fill="#4b505c" font-family="'JetBrains Mono','SF Mono',Consolas,ui-monospace,monospace" font-size="9">-12w</text>
  <text x="692" y="128" fill="#4b505c" font-family="'JetBrains Mono','SF Mono',Consolas,ui-monospace,monospace" font-size="9" text-anchor="end">now</text>
</svg>